# xmcd CD database file
#
# Track frame offsets:
#	187
#	19720
#	45797
#	64982
#	89670
#
# Disc length: 1538 seconds
#
# Revision: 0
# Processed by: cddbd v1.5PL3 Copyright (c) Steve Scherf et al.
# Submitted via: CDex 1.51
#
DISCID=37060005
DTITLE=Gigi Gryce - Clifford Brown Sextet - Gigi Gryce - Clifford Brown Sextet
DYEAR=1953
DGENRE=Jazz
TTITLE0=Strictly Romantic
TTITLE1=Baby
TTITLE2=No Start No End
TTITLE3=Minority
TTITLE4=Salute To The Band Box
EXTD=YEAR: 1953
EXTT0=
EXTT1=
EXTT2=
EXTT3=
EXTT4=
PLAYORDER=
